<svg xmlns="http://www.w3.org/2000/svg" width="887" height="522">
  <g fill="none" fill-rule="evenodd">
    <path fill="#231F20" d="M2.6 3.1H883v418.3H2.6z"/>
    <path d="M880.4 5.4v413.8H5.1V5.4h875.3Zm5.1-4.6H0v422.8h886V.8h-.5Z" fill="#FFF" fill-rule="nonzero"/>
    <path fill="#FFF" d="M17.9 20.1h244.2v68.6H17.9zM17.8 103.7h244.3V356H17.8z"/>
    <g fill="#FFF">
      <path d="M17.9 404.3v-33.5h49v7.8H37.6v4.8h24.8v7.8H37.6v5.2H68v7.9zM109.7 380.5c-.3-1.1-1.4-1.9-2.9-2.3-1.4-.4-3.1-.6-5.1-.6-4.3 0-6.3.7-6.3 1.9 0 5 34.6 1.8 34.6 14 0 7.8-11.6 11.5-28.1 11.5-15.9 0-26.2-5.2-26.6-11.2h18.9c.4 1.2 1.6 2.1 3.3 2.6 1.6.5 3.7.8 5.6.8 4.9 0 8.2-.9 8.2-2.5 0-5.1-34.6-1.6-34.6-14.4 0-7.1 11-10.7 26.1-10.7 16.7 0 24.3 4.7 25.7 10.6h-18.8v.3Z"/>
      <path d="M159.6 385.3h7.7c6.1 0 9.4-.9 9.4-3.2 0-2.3-3.3-3.5-7.9-3.5h-9.2v6.7Zm0 7.3v11.7h-19.7v-33.5h28.4c20 0 26.6 3.1 26.6 9.6 0 3.9-3.1 7.1-10.1 8.2 6.3 1.3 10.2 2.1 10.2 8.8 0 4.4-.3 5.9 2.1 5.9v1h-20c-.5-.7-1-2.9-1-5.8 0-4.4-1.3-5.8-10.5-5.8h-6v-.1ZM226.7 378.6v5.6h8.2c3.9 0 6.8-1 6.8-2.9 0-2.6-3.9-2.7-8-2.7h-7Zm0 11.7v6.2h8.6c4.9 0 8.5-.6 8.5-3.1 0-2.9-4.6-3.1-10.9-3.1h-6.2Zm-19.6 14v-33.5h28.7c13.5 0 24.3 1.8 24.3 8.4 0 3.5-4 6-7.9 7.3 6.5.9 10 4.1 10 7.7 0 7.5-10.2 10.1-25.9 10.1h-29.2Z" fill-rule="nonzero"/>
    </g>
    <path fill="#FFF" d="M277 20h588.9v384.3H277z"/>
    <g fill="#231F20">
      <path d="M155.3 294.5h-10.5v5.8h10.5v10.2h6v-10.2h10.6v-5.8h-10.6v-10.3h-6v10.3Zm-16.8-2.6c0-20.4-10.9-32.4-29-32.4-24.5 0-30.5 16.7-30.5 32.4 0 19.2 9.6 32.4 29.8 32.4 20 .1 29.7-13.2 29.7-32.4ZM36 162.4l148.2-44.2 14.8 46.9-74.2 22.1 6.1 19.2 68.6-20.4 14.8 46.9-68.5 20.4 6.4 20.2 76.7-22.9 14.9 46.9-150.6 45L36 162.4Zm5.6 118.7c7.2-2.1 14.5-5.2 18.4-8.9v49.1h14v-61.5H60.4c-5.1 4.4-10.3 6.9-18.8 9.4v11.9Z" fill-rule="nonzero"/>
      <path d="M91.7 291.4c.1-20.6 8.3-25.3 17.6-25.3 10.4 0 16.4 7.9 16.3 25.9-.1 11.3-3.1 25-16.5 25-13-.1-17.4-10.6-17.4-25.6"/>
    </g>
    <g fill="#231F20">
      <path d="M24 74.1V35.4h15.3v6h-9.4v9.5h8.7v5.9h-8.7v11.3h9.7V74H24zM41.2 35.4h6.1l4.3 28.1h.1l4.9-28.1h5.8L55 74.1h-6.9zM65 74.1V35.4h15.3v6h-9.4v9.5h8.7v5.9h-8.7v11.3h9.7V74H65z"/>
      <path d="M90.1 74.1h-5.9V35.4H95c2 0 3.6.9 4.8 2.6 1.2 1.7 1.8 4.2 1.8 7.5 0 2.5-.4 4.6-1.2 6.3-.8 1.7-2.1 2.8-4 3.2v.1c.3.1.7.2 1.3.3.6.1 1.1.5 1.7 1 .6.5 1 1.2 1.4 2.2.4 1 .6 2.3.6 4.1v2.6c0 1.1 0 2.2.1 3.4.1 1.2.1 2.3.2 3.3s.2 1.7.3 2.1h-5.7c-.4-1.2-.6-2.4-.6-3.7v-7.1c0-1-.1-1.9-.4-2.7-.2-.8-.7-1.4-1.2-1.8-.6-.5-1.4-.7-2.5-.7h-1.5v16Zm0-21.9h2.6c.6 0 1-.2 1.4-.5.4-.3.7-.8.9-1.4.2-.6.4-1.2.5-1.9.1-.7.1-1.3.1-1.9 0-1.9-.3-3.2-.8-3.9-.5-.8-1.2-1.1-2.2-1.1H90v10.7h.1Z" fill-rule="nonzero"/>
      <path d="m110.5 60.7-7.3-25.3h6.4l4.2 16.3 4.5-16.3h6l-7.8 25.3v13.4h-5.9V60.7z"/>
      <path d="M136.3 74.7c-2.4 0-4.3-.6-5.6-1.7-1.3-1.1-2.3-2.6-2.9-4.5-.6-1.9-.9-4-1-6.4-.1-2.4-.2-4.8-.2-7.4 0-2.6.1-5 .2-7.4.1-2.4.5-4.5 1-6.4.6-1.8 1.6-3.3 2.9-4.5 1.3-1.1 3.2-1.7 5.6-1.7 2.4 0 4.3.6 5.6 1.7 1.3 1.1 2.3 2.6 2.9 4.5.6 1.9.9 4 1 6.4.1 2.4.2 4.9.2 7.4s-.1 5-.2 7.4c-.1 2.4-.5 4.5-1 6.4-.6 1.9-1.5 3.4-2.9 4.5-1.3 1.2-3.2 1.7-5.6 1.7Zm0-5.7c.8 0 1.5-.3 2-.8.5-.6.9-1.4 1.1-2.5.3-1.1.4-2.6.5-4.4.1-1.8.1-3.9.1-6.4 0-2.5 0-4.6-.1-6.4-.1-1.8-.2-3.3-.5-4.4-.3-1.1-.6-2-1.1-2.5-.5-.5-1.1-.8-2-.8-.8 0-1.5.3-2 .8-.5.6-.9 1.4-1.1 2.5-.3 1.2-.4 2.6-.5 4.4-.1 1.8-.1 3.9-.1 6.4 0 2.5 0 4.6.1 6.4.1 1.8.3 3.3.5 4.4.2 1.1.6 2 1.1 2.5.5.5 1.2.8 2 .8Z" fill-rule="nonzero"/>
      <path d="M150.7 74.1V35.4h7.9l7.4 26.8h.1V35.4h5.5v38.7h-7.7l-7.6-28.3h-.1v28.3zM176.5 74.1V35.4h15.3v6h-9.4v9.5h8.7v5.9h-8.7v11.3h9.7V74h-15.6zM204 41.6c1-.8 1.9-1.6 2.8-2.6.9-1 1.7-2.1 2.4-3.4h5.2v38.5h-5.8V44.5c-.7.9-1.4 1.6-2.2 2.3-.8.7-1.6 1.4-2.4 2v-7.2Z"/>
      <path d="M227.9 35.1c1.6 0 3 .3 4 1s1.8 1.8 2.4 3.3c.6 1.5.9 3.6 1.1 6.1.2 2.5.3 5.6.3 9.3 0 3-.1 5.7-.2 8.2-.1 2.4-.5 4.5-1 6.2-.5 1.7-1.3 3.1-2.4 4-1 .9-2.5 1.4-4.3 1.4-1.8 0-3.3-.5-4.3-1.4-1-1-1.8-2.3-2.4-4-.5-1.7-.8-3.8-1-6.2-.1-2.4-.2-5.2-.2-8.2 0-3.7.1-6.8.3-9.3.2-2.5.6-4.5 1.1-6.1.5-1.5 1.4-2.6 2.4-3.3 1.2-.7 2.5-1 4.2-1Zm0 5.6c-.6 0-1 .2-1.4.5-.3.4-.5 1.1-.7 2.1-.2 1-.2 2.4-.3 4.3v7.2c0 2.9 0 5.3.1 7.1 0 1.8.2 3.3.3 4.3.2 1 .4 1.7.7 2.1.3.4.7.6 1.3.6.5 0 1-.2 1.3-.6.3-.4.6-1.1.7-2.1.2-1 .3-2.5.3-4.3 0-1.9.1-4.2.1-7.1v-7.2c0-1.8-.1-3.3-.3-4.3-.2-1-.4-1.7-.7-2.1-.4-.3-.8-.5-1.4-.5Z" fill-rule="nonzero"/>
      <path d="M244.1 42.9h4.3v10.6h6.6v5.9h-6.6V70h-4.3V59.4h-6.6v-5.9h6.6z"/>
    </g>
    <g>
      <path fill="#FFF" d="M.1 418.1h886v103.5H.1z"/>
      <path fill="#231F20" d="M5.5 417.8h874.9v97.7H5.5z"/>
      <path fill="#FFF" d="M11.6 423.7h863v85.7h-863z"/>
      <path d="M314.9 445.6h4.7V466c0 3.5-.4 6.4-1.2 8.4-.8 2.1-2.2 3.8-4.3 5.1-2.1 1.3-4.8 2-8.2 2-3.3 0-6-.6-8.1-1.7-2.1-1.1-3.6-2.8-4.5-4.9-.9-2.2-1.3-5.1-1.3-8.8v-20.4h4.7V466c0 3.1.3 5.3.9 6.8.6 1.5 1.5 2.6 2.9 3.4 1.4.8 3.1 1.2 5.1 1.2 3.4 0 5.9-.8 7.3-2.3 1.5-1.6 2.2-4.5 2.2-9v-20.5h-.2ZM325.1 473.2l4.3-.7c.2 1.7.9 3 2 3.9 1.1.9 2.6 1.4 4.6 1.4 2 0 3.5-.4 4.4-1.2 1-.8 1.4-1.8 1.4-2.8 0-1-.4-1.7-1.3-2.3-.6-.4-2.1-.9-4.4-1.5-3.2-.8-5.4-1.5-6.6-2.1-1.2-.6-2.2-1.4-2.8-2.4-.6-1-1-2.2-1-3.4 0-1.1.3-2.2.8-3.2s1.2-1.8 2.1-2.4c.7-.5 1.6-.9 2.8-1.3 1.2-.3 2.4-.5 3.7-.5 2 0 3.8.3 5.3.9 1.5.6 2.6 1.4 3.4 2.3.7 1 1.2 2.3 1.5 4l-4.2.6c-.2-1.3-.8-2.3-1.7-3.1-.9-.7-2.2-1.1-3.9-1.1-2 0-3.4.3-4.3 1-.9.7-1.3 1.4-1.3 2.3 0 .6.2 1.1.5 1.5.3.5.9.9 1.7 1.2.4.2 1.7.5 3.8 1.1 3.1.8 5.2 1.5 6.4 2 1.2.5 2.2 1.3 2.9 2.3.7 1 1 2.2 1 3.7 0 1.4-.4 2.8-1.3 4.1-.8 1.3-2.1 2.3-3.6 3-1.6.7-3.4 1-5.4 1-3.3 0-5.9-.7-7.6-2.1-1.6-1.4-2.7-3.5-3.2-6.2Z" fill="#231F20"/>
      <path d="m368.9 472.6 4.5.6c-.7 2.6-2 4.6-3.9 6.1-1.9 1.4-4.3 2.2-7.3 2.2-3.7 0-6.7-1.2-8.9-3.5s-3.3-5.5-3.3-9.7c0-4.3 1.1-7.6 3.3-10 2.2-2.4 5.1-3.6 8.6-3.6 3.4 0 6.2 1.2 8.4 3.5s3.2 5.6 3.2 9.8v1.2h-19c.2 2.8 1 5 2.4 6.4 1.4 1.5 3.2 2.2 5.3 2.2 1.6 0 2.9-.4 4.1-1.3 1.1-.7 2-2 2.6-3.9Zm-14.2-7H369c-.2-2.2-.7-3.8-1.6-4.8-1.4-1.7-3.2-2.5-5.4-2.5-2 0-3.7.7-5 2-1.4 1.3-2.1 3.1-2.3 5.3Z" fill="#231F20" fill-rule="nonzero"/>
      <path d="M378.8 480.9v-25.5h3.9v3.9c1-1.8 1.9-3 2.8-3.6.8-.6 1.8-.9 2.8-.9 1.5 0 2.9.5 4.4 1.4l-1.5 4c-1.1-.6-2.1-.9-3.2-.9-1 0-1.8.3-2.5.9-.8.6-1.3 1.4-1.6 2.4-.5 1.5-.7 3.2-.7 5.1v13.4h-4.4v-.2ZM393.5 473.2l4.3-.7c.2 1.7.9 3 2 3.9 1.1.9 2.6 1.4 4.6 1.4 2 0 3.5-.4 4.4-1.2 1-.8 1.4-1.8 1.4-2.8 0-1-.4-1.7-1.3-2.3-.6-.4-2.1-.9-4.4-1.5-3.2-.8-5.4-1.5-6.6-2.1-1.2-.6-2.2-1.4-2.8-2.4-.6-1-1-2.2-1-3.4 0-1.1.3-2.2.8-3.2s1.2-1.8 2.1-2.4c.7-.5 1.6-.9 2.8-1.3 1.2-.3 2.4-.5 3.7-.5 2 0 3.8.3 5.3.9 1.5.6 2.6 1.4 3.4 2.3.7 1 1.2 2.3 1.5 4l-4.2.6c-.2-1.3-.8-2.3-1.7-3.1-.9-.7-2.2-1.1-3.9-1.1-2 0-3.4.3-4.3 1-.9.7-1.3 1.4-1.3 2.3 0 .6.2 1.1.5 1.5.3.5.9.9 1.7 1.2.4.2 1.7.5 3.8 1.1 3.1.8 5.2 1.5 6.4 2 1.2.5 2.2 1.3 2.9 2.3.7 1 1 2.2 1 3.7 0 1.4-.4 2.8-1.3 4.1-.8 1.3-2.1 2.3-3.6 3-1.6.7-3.4 1-5.4 1-3.3 0-5.9-.7-7.6-2.1-1.6-1.4-2.7-3.5-3.2-6.2ZM434.9 445.6h4.7v35.3h-4.7zM447.2 480.9v-25.5h3.9v3.6c1.9-2.8 4.6-4.2 8.1-4.2 1.5 0 3 .3 4.2.8 1.3.6 2.3 1.3 2.9 2.2.6.9 1.1 2 1.3 3.2.2.8.2 2.2.2 4.2v15.7h-4.3v-15.5c0-1.8-.2-3.1-.5-4-.3-.9-.9-1.6-1.8-2.1s-1.9-.8-3-.8c-1.8 0-3.4.6-4.8 1.8-1.3 1.2-2 3.4-2 6.7v14h-4.2v-.1ZM484.1 477l.6 3.8c-1.2.3-2.3.4-3.3.4-1.6 0-2.8-.3-3.7-.7-.9-.5-1.5-1.2-1.8-2-.4-.8-.5-2.5-.5-5.1v-14.7h-3.2v-3.4h3.2V449l4.3-2.6v8.9h4.4v3.4h-4.4v14.9c0 1.2.1 2 .2 2.4l.7.8c.3.2.8.3 1.5.3.6.1 1.2 0 2-.1Z" fill="#231F20"/>
      <path d="m505.8 472.6 4.5.6c-.7 2.6-2 4.6-3.9 6.1-1.9 1.4-4.3 2.2-7.3 2.2-3.7 0-6.7-1.2-8.9-3.5s-3.3-5.5-3.3-9.7c0-4.3 1.1-7.6 3.3-10 2.2-2.4 5.1-3.6 8.6-3.6 3.4 0 6.2 1.2 8.4 3.5s3.2 5.6 3.2 9.8v1.2h-19c.2 2.8 1 5 2.4 6.4 1.4 1.5 3.2 2.2 5.3 2.2 1.6 0 2.9-.4 4.1-1.3 1.1-.7 1.9-2 2.6-3.9Zm-14.2-7h14.3c-.2-2.2-.7-3.8-1.6-4.8-1.4-1.7-3.2-2.5-5.4-2.5-2 0-3.7.7-5 2-1.4 1.3-2.2 3.1-2.3 5.3Z" fill="#231F20" fill-rule="nonzero"/>
      <path d="M515.7 480.9v-25.5h3.9v3.9c1-1.8 1.9-3 2.8-3.6.8-.6 1.8-.9 2.8-.9 1.5 0 2.9.5 4.4 1.4l-1.5 4c-1.1-.6-2.1-.9-3.2-.9-1 0-1.8.3-2.5.9-.8.6-1.3 1.4-1.6 2.4-.5 1.5-.7 3.2-.7 5.1v13.4h-4.4v-.2Z" fill="#231F20"/>
      <path d="M548.8 477.7c-1.6 1.4-3.2 2.3-4.6 2.9-1.5.6-3.1.8-4.8.8-2.8 0-5-.7-6.5-2.1-1.5-1.4-2.3-3.1-2.3-5.3 0-1.3.3-2.4.9-3.4.6-1 1.3-1.9 2.2-2.5.9-.6 2-1.1 3.1-1.4.8-.2 2.1-.4 3.8-.6 3.5-.4 6.1-.9 7.7-1.5v-1.1c0-1.8-.4-3-1.2-3.7-1.1-1-2.8-1.5-4.9-1.5-2 0-3.5.4-4.5 1.1-1 .7-1.7 2-2.2 3.8l-4.2-.6c.4-1.8 1-3.3 1.9-4.4.9-1.1 2.2-2 3.8-2.6 1.7-.6 3.6-.9 5.8-.9 2.2 0 4 .3 5.3.8 1.4.5 2.4 1.2 3 1.9.6.8 1.1 1.8 1.3 2.9.1.7.2 2.1.2 4v5.8c0 4 .1 6.6.3 7.6.2 1.1.5 2.1 1.1 3.1h-4.5c-.3-.8-.6-1.9-.7-3.1Zm-.4-9.7c-1.6.6-3.9 1.2-7.1 1.6-1.8.3-3 .5-3.8.9-.7.3-1.3.8-1.7 1.4-.4.6-.6 1.3-.6 2.1 0 1.2.4 2.1 1.3 2.9.9.8 2.2 1.2 3.8 1.2 1.7 0 3.2-.4 4.4-1.1 1.3-.7 2.2-1.7 2.9-3 .5-1 .7-2.4.7-4.3V468h.1Z" fill="#231F20" fill-rule="nonzero"/>
      <path d="m576.2 471.5 4.3.6c-.5 2.9-1.7 5.2-3.6 6.9-1.9 1.7-4.3 2.5-7.1 2.5-3.5 0-6.3-1.1-8.4-3.4-2.1-2.3-3.2-5.6-3.2-9.8 0-2.8.5-5.2 1.4-7.2.9-2.1 2.3-3.6 4.2-4.7 1.9-1 3.9-1.6 6.1-1.6 2.8 0 5 .7 6.8 2.1 1.8 1.4 2.9 3.4 3.4 6l-4.2.6c-.4-1.7-1.1-3-2.1-3.9-1-.9-2.2-1.3-3.7-1.3-2.2 0-4 .8-5.3 2.3-1.4 1.6-2 4-2 7.4 0 3.4.7 5.9 2 7.5 1.3 1.6 3 2.3 5.1 2.3 1.7 0 3.1-.5 4.3-1.6 1-.9 1.7-2.5 2-4.7ZM593.6 477l.6 3.8c-1.2.3-2.3.4-3.3.4-1.6 0-2.8-.3-3.7-.7-.9-.5-1.5-1.2-1.8-2-.4-.8-.5-2.5-.5-5.1v-14.7h-3.2v-3.4h3.2V449l4.3-2.6v8.9h4.4v3.4h-4.4v14.9c0 1.2.1 2 .2 2.4l.7.8c.3.2.8.3 1.5.3.6.1 1.2 0 2-.1Z" fill="#231F20"/>
    </g>
    <g fill="#231F20">
      <path d="M305.1 184.7v-56.3h31.1v6.6h-25v17.4h21.6v6.6h-21.6v25.6h-6.1z"/>
      <path d="M365 179.6c-1.9 2-3.9 3.5-5.9 4.5-2 1-4.2 1.5-6.4 1.5-3.5 0-6.3-1-8.3-3.1-2.1-2.1-3.1-4.9-3.1-8.5 0-2.4.5-4.4 1.5-6.3 1-1.8 2.3-3.2 4-4.3 1.7-1 4.2-1.8 7.7-2.3 4.6-.7 8-1.5 10.1-2.4v-1.8c0-2.8-.5-4.7-1.5-5.9-1.4-1.6-3.6-2.5-6.5-2.5-2.6 0-4.6.5-5.9 1.6-1.3 1.1-2.3 3.1-2.9 6.2l-5.6-.9c.8-4.4 2.4-7.6 4.8-9.6s5.9-3 10.4-3c3.5 0 6.3.7 8.3 2 2 1.3 3.3 2.9 3.8 4.9.5 1.9.8 4.8.8 8.5v9.2c0 6.4.1 10.5.4 12.2.2 1.7.7 3.3 1.4 4.9h-5.9c-.6-1.2-1-2.9-1.2-4.9Zm-.4-15.4c-2.1 1-5.2 1.9-9.3 2.6-2.4.4-4 .9-5 1.4-.9.5-1.7 1.3-2.2 2.2-.5 1-.8 2.1-.8 3.3 0 1.9.6 3.5 1.8 4.7 1.2 1.2 2.9 1.7 5 1.7 2 0 3.9-.5 5.5-1.6 1.7-1 2.9-2.5 3.7-4.2.8-1.7 1.2-4.3 1.2-7.7v-2.4h.1Z" fill-rule="nonzero"/>
      <path d="M379.1 184.7v-40.8h5.1v5.8c1.2-2.2 2.7-3.9 4.5-5 1.8-1.1 3.8-1.7 6.1-1.7 1.8 0 3.4.4 5 1.1 1.5.7 2.7 1.6 3.7 2.8.9 1.1 1.6 2.6 2.1 4.4.5 1.8.7 4.6.7 8.4v25.1h-5.6V160c0-3-.3-5.2-.8-6.6-.5-1.4-1.3-2.5-2.4-3.2-1.1-.8-2.4-1.1-3.8-1.1-2.7 0-4.9 1-6.5 3-1.6 2-2.4 5.5-2.4 10.4v22.3h-5.7v-.1ZM427.5 178.5l.8 6.1c-1.6.4-3 .6-4.2.6-2 0-3.6-.4-4.8-1.2-1.2-.8-2-1.9-2.5-3.2-.4-1.4-.7-4.1-.7-8.1v-23.5H412v-5.4h4.1v-10.1l5.6-4.1v14.2h5.7v5.4h-5.7V173c0 2.2.2 3.6.5 4.3.5.9 1.4 1.4 2.7 1.4.8.1 1.6 0 2.6-.2Z"/>
      <path d="M454.6 179.6c-1.9 2-3.9 3.5-5.9 4.5-2 1-4.2 1.5-6.4 1.5-3.5 0-6.3-1-8.3-3.1-2.1-2.1-3.1-4.9-3.1-8.5 0-2.4.5-4.4 1.5-6.3 1-1.8 2.3-3.2 4-4.3 1.7-1 4.2-1.8 7.7-2.3 4.6-.7 8-1.5 10.1-2.4v-1.8c0-2.8-.5-4.7-1.5-5.9-1.4-1.6-3.6-2.5-6.5-2.5-2.6 0-4.6.5-5.9 1.6-1.3 1.1-2.3 3.1-2.9 6.2l-5.6-.9c.8-4.4 2.4-7.6 4.8-9.6s5.9-3 10.4-3c3.5 0 6.3.7 8.3 2 2 1.3 3.3 2.9 3.8 4.9.5 1.9.8 4.8.8 8.5v9.2c0 6.4.1 10.5.4 12.2.2 1.7.7 3.3 1.4 4.9h-5.9c-.6-1.2-1-2.9-1.2-4.9Zm-.4-15.4c-2.1 1-5.2 1.9-9.3 2.6-2.4.4-4 .9-5 1.4-.9.5-1.7 1.3-2.2 2.2-.5 1-.8 2.1-.8 3.3 0 1.9.6 3.5 1.8 4.7 1.2 1.2 2.9 1.7 5 1.7 2 0 3.9-.5 5.5-1.6 1.6-1 2.9-2.5 3.7-4.2.8-1.7 1.2-4.3 1.2-7.7v-2.4h.1Z" fill-rule="nonzero"/>
      <path d="m466.5 172.5 5.6-1.1c.3 2.9 1.2 5 2.7 6.4 1.5 1.4 3.4 2.1 5.9 2.1 2.5 0 4.3-.6 5.7-1.8 1.3-1.2 2-2.8 2-4.6 0-1.6-.6-2.9-1.7-3.8-.8-.6-2.7-1.4-5.8-2.3-4.4-1.4-7.3-2.5-8.8-3.5-1.5-.9-2.6-2.2-3.5-3.8-.8-1.6-1.2-3.4-1.2-5.4 0-3.5 1.1-6.3 3.3-8.5 2.2-2.2 5.3-3.3 9.3-3.3 2.5 0 4.7.4 6.5 1.3 1.9.9 3.3 2.1 4.3 3.6s1.7 3.7 2.1 6.5l-5.5.9c-.5-4.5-2.9-6.7-7.3-6.7-2.5 0-4.3.5-5.5 1.5-1.2 1-1.8 2.2-1.8 3.8 0 1.5.6 2.7 1.7 3.6.7.5 2.7 1.3 6.2 2.5 4.7 1.5 7.7 2.7 9.1 3.6 1.4.9 2.4 2.1 3.2 3.6.8 1.5 1.1 3.3 1.1 5.4 0 3.9-1.2 7-3.7 9.5-2.5 2.4-5.8 3.6-10.1 3.6-7.8 0-12.5-4.4-13.8-13.1ZM500.8 200.4l-.6-6.5c1.3.4 2.3.6 3.2.6 1.2 0 2.2-.2 3-.7.8-.5 1.4-1.2 1.9-2.3.2-.4.9-2.6 2.2-6.8l-12.7-40.8h6.1l7 23.6c.9 2.9 1.7 6.1 2.4 9.4.6-3.2 1.4-6.3 2.3-9.3l7.1-23.7h5.7l-12.7 41.5c-1.7 5.4-3 9-3.9 10.8-1 1.8-2.1 3.1-3.3 3.9-1.2.8-2.6 1.2-4.1 1.2-1-.1-2.3-.4-3.6-.9ZM565.2 184.7l-17.9-56.3h6.6l12 40.9c.9 3.2 1.7 6.2 2.4 9.2.7-3.1 1.5-6.2 2.5-9.2l12.5-40.9h6.2l-18 56.3h-6.3Z"/>
      <path d="M593 136.3v-7.9h5.6v7.9H593Zm0 48.4v-40.8h5.6v40.8H593ZM605.2 164.3c0-7 1.5-12.3 4.4-15.9 3-3.6 6.7-5.4 11.2-5.4 4.5 0 8.2 1.8 11.2 5.4 3 3.6 4.5 8.8 4.5 15.5 0 7.3-1.5 12.8-4.4 16.4-2.9 3.6-6.7 5.4-11.2 5.4-4.5 0-8.2-1.8-11.2-5.4-3-3.7-4.5-9-4.5-16Zm5.8 0c0 5.3 1 9.2 2.9 11.8 1.9 2.6 4.3 3.9 7.1 3.9 2.7 0 4.9-1.3 6.8-3.9 1.9-2.6 2.9-6.5 2.9-11.7 0-5.2-1-9.2-2.9-11.7-1.9-2.6-4.3-3.9-7.1-3.9-2.7 0-5 1.3-6.9 3.9-1.9 2.4-2.8 6.3-2.8 11.6Z" fill-rule="nonzero"/>
      <path d="M643 184.7v-56.3h5.6v56.3z"/>
      <path d="m680.3 171.5 5.8.9c-1 4.3-2.7 7.6-5.3 9.8-2.5 2.2-5.7 3.3-9.5 3.3-4.7 0-8.6-1.8-11.5-5.4-2.9-3.6-4.4-8.8-4.4-15.6 0-7 1.5-12.4 4.4-16.1 3-3.7 6.7-5.5 11.2-5.5 4.3 0 7.9 1.8 10.8 5.4 2.9 3.6 4.3 8.9 4.3 15.8v1.8h-24.9c.2 4.6 1.3 8 3.2 10.4 1.9 2.3 4.2 3.5 6.9 3.5 4.4.1 7.4-2.7 9-8.3Zm-18.6-11.1h18.7c-.3-3.5-1-6.2-2.3-7.9-1.8-2.5-4.1-3.8-6.9-3.8-2.5 0-4.7 1.1-6.5 3.2-1.8 2-2.8 4.9-3 8.5Z" fill-rule="nonzero"/>
      <path d="M693.3 184.7v-40.8h5.1v5.8c1.2-2.2 2.7-3.9 4.5-5 1.8-1.1 3.8-1.7 6.1-1.7 1.8 0 3.4.4 5 1.1 1.5.7 2.7 1.6 3.7 2.8.9 1.1 1.6 2.6 2.1 4.4.5 1.8.7 4.6.7 8.4v25.1h-5.6V160c0-3-.3-5.2-.8-6.6-.5-1.4-1.3-2.5-2.4-3.2-1.1-.8-2.3-1.1-3.8-1.1-2.7 0-4.9 1-6.5 3-1.6 2-2.4 5.5-2.4 10.4v22.3h-5.7v-.1ZM751.1 169.7l5.6.9c-.6 4.9-2.2 8.6-4.8 11.1-2.6 2.6-5.7 3.8-9.3 3.8-4.4 0-8-1.8-10.8-5.4-2.8-3.6-4.2-8.9-4.2-16s1.4-12.4 4.3-16c2.9-3.5 6.5-5.3 11-5.3 3.5 0 6.4 1.1 8.7 3.2 2.4 2.1 3.9 5.4 4.6 9.7l-5.5 1c-.5-2.8-1.5-4.8-2.8-6.2-1.3-1.4-2.9-2-4.8-2-2.8 0-5.1 1.2-6.9 3.7-1.8 2.5-2.7 6.4-2.7 11.8 0 5.6.9 9.6 2.6 12.1 1.8 2.5 4 3.7 6.7 3.7 2.1 0 4-.8 5.5-2.5 1.4-1.5 2.4-4.1 2.8-7.6Z"/>
      <path d="m784.3 171.5 5.8.9c-1 4.3-2.7 7.6-5.3 9.8-2.5 2.2-5.7 3.3-9.5 3.3-4.7 0-8.6-1.8-11.5-5.4-2.9-3.6-4.4-8.8-4.4-15.6 0-7 1.5-12.4 4.4-16.1 3-3.7 6.7-5.5 11.2-5.5 4.3 0 7.9 1.8 10.8 5.4 2.9 3.6 4.3 8.9 4.3 15.8v1.8h-24.9c.2 4.6 1.3 8 3.2 10.4 1.9 2.3 4.2 3.5 6.9 3.5 4.4.1 7.3-2.7 9-8.3Zm-18.6-11.1h18.7c-.3-3.5-1-6.2-2.3-7.9-1.8-2.5-4.1-3.8-6.9-3.8-2.5 0-4.7 1.1-6.5 3.2-1.9 2-2.9 4.9-3 8.5Z" fill-rule="nonzero"/>
    </g>
    <g fill="#231F20">
      <path d="M304.5 279.1v-56.3h9.2l11 39.8 2.2 8.3c.5-2.1 1.4-5.1 2.5-9l11.1-39.2h8.2V279h-5.9v-47l-13.5 47.1h-5.5l-13.4-47.9v47.9h-5.9Z"/>
      <path d="M357.6 230.8v-7.9h5.6v7.9h-5.6Zm0 48.3v-40.8h5.6v40.8h-5.6Z" fill-rule="nonzero"/>
      <path d="M371.7 279.1v-56.3h5.6v56.3z"/>
      <path d="M407.9 279.1V274c-1 2-2.3 3.5-4 4.5-1.6 1-3.3 1.6-5.2 1.6-3.9 0-7.4-1.9-10.2-5.6-2.9-3.7-4.3-9-4.3-15.7 0-4.6.6-8.6 1.9-11.8 1.3-3.2 3-5.6 5.1-7.2 2.1-1.6 4.5-2.3 7.1-2.3 1.9 0 3.6.5 5.2 1.5s2.9 2.4 4 4.1v-20.2h5.7v56.3h-5.3v-.1Zm-18-20.4c0 5.3.9 9.2 2.7 11.7 1.8 2.6 4 3.8 6.4 3.8 2.4 0 4.5-1.2 6.3-3.7 1.8-2.5 2.6-6.2 2.6-11.1 0-5.7-.9-9.9-2.6-12.5-1.8-2.6-4-3.9-6.7-3.9-2.4 0-4.4 1.3-6.1 3.8-1.7 2.6-2.6 6.5-2.6 11.9Z" fill-rule="nonzero"/>
      <path d="M440.4 279.1v-56.3h6.1v49.6h22.7v6.6h-28.8z"/>
      <path d="M497.6 274.1c-1.9 2-3.9 3.5-5.9 4.5-2 1-4.2 1.5-6.4 1.5-3.5 0-6.3-1-8.3-3.1-2.1-2.1-3.1-4.9-3.1-8.5 0-2.4.5-4.4 1.5-6.3 1-1.8 2.3-3.2 4-4.3 1.7-1 4.2-1.8 7.7-2.3 4.6-.7 8-1.5 10.1-2.4v-1.8c0-2.8-.5-4.7-1.5-5.9-1.4-1.6-3.6-2.5-6.5-2.5-2.6 0-4.6.5-5.9 1.6-1.3 1.1-2.3 3.1-2.9 6.2l-5.6-.9c.8-4.4 2.4-7.6 4.8-9.6s5.9-3 10.4-3c3.5 0 6.3.7 8.3 2 2 1.3 3.3 2.9 3.8 4.9.5 1.9.8 4.8.8 8.5v9.2c0 6.4.1 10.5.4 12.2.2 1.7.7 3.3 1.4 4.9h-5.9c-.6-1.3-1-3-1.2-4.9Zm-.5-15.5c-2.1 1-5.2 1.9-9.3 2.6-2.4.4-4 .9-5 1.4-.9.5-1.7 1.3-2.2 2.2-.5 1-.8 2.1-.8 3.3 0 1.9.6 3.5 1.8 4.7 1.2 1.2 2.9 1.7 5 1.7 2 0 3.9-.5 5.5-1.6 1.7-1 2.9-2.5 3.7-4.2.8-1.7 1.2-4.3 1.2-7.7v-2.4h.1Z" fill-rule="nonzero"/>
      <path d="M511.7 279.1v-40.8h5.1v5.8c1.2-2.2 2.7-3.9 4.5-5 1.8-1.1 3.8-1.7 6.1-1.7 1.8 0 3.4.4 5 1.1 1.5.7 2.7 1.6 3.7 2.8.9 1.1 1.6 2.6 2.1 4.4.5 1.8.7 4.6.7 8.4v25.1h-5.6v-24.8c0-3-.3-5.2-.8-6.6-.5-1.4-1.3-2.5-2.4-3.2-1.1-.8-2.4-1.1-3.8-1.1-2.7 0-4.9 1-6.5 3-1.6 2-2.4 5.5-2.4 10.4v22.3h-5.7v-.1Z"/>
      <path d="m546.4 282.5 5.5 1c.3 2.2 1 3.8 2.3 4.9 1.3 1.1 3.1 1.6 5.3 1.6 2.5 0 4.5-.6 5.9-1.8 1.5-1.2 2.5-3 3-5.3.3-1.4.5-4.5.5-9.1-1.2 1.7-2.6 3.1-4.1 4-1.5.9-3.2 1.3-5.1 1.3-4 0-7.3-1.7-9.9-5.1-3-3.9-4.5-9.1-4.5-15.6 0-4.4.7-8.2 2-11.5 1.3-3.3 3.1-5.7 5.2-7.2 2.2-1.5 4.6-2.3 7.3-2.3 2 0 3.8.5 5.4 1.4 1.6 1 3.1 2.4 4.3 4.3v-4.9h5.2v35.2c0 6.3-.5 10.7-1.5 13.4-1 2.7-2.7 4.8-5 6.3-2.3 1.6-5.1 2.3-8.4 2.3-4.3 0-7.6-1.2-10-3.5-2.3-2.1-3.5-5.3-3.4-9.4Zm4.7-24.5c0 5.4.9 9.3 2.7 11.7 1.8 2.5 3.9 3.7 6.5 3.7s4.7-1.2 6.5-3.6c1.8-2.4 2.7-6.2 2.7-11.5 0-5.1-.9-8.9-2.8-11.4-1.8-2.5-4.1-3.8-6.7-3.8-2.4 0-4.4 1.3-6.2 3.8-1.8 2.4-2.7 6.2-2.7 11.1Z" fill-rule="nonzero"/>
      <path d="M605.3 279.1v-6c-1.3 2.3-2.8 4-4.6 5.2-1.8 1.2-3.8 1.7-6 1.7-2.6 0-4.9-.7-6.8-2.1-1.9-1.4-3.1-3.2-3.7-5.4-.6-2.2-.9-5.1-.9-8.9v-25.3h5.6v22.6c0 4.2.2 7 .6 8.4.4 1.4 1.2 2.6 2.3 3.4 1.1.9 2.4 1.3 3.9 1.3 2.7 0 4.9-1.1 6.7-3.3 1.5-1.9 2.2-5.4 2.2-10.6v-21.8h5.7v40.8h-5Z"/>
      <path d="M641 274.1c-1.9 2-3.9 3.5-5.9 4.5-2 1-4.2 1.5-6.4 1.5-3.5 0-6.3-1-8.3-3.1-2.1-2.1-3.1-4.9-3.1-8.5 0-2.4.5-4.4 1.5-6.3 1-1.8 2.3-3.2 4-4.3 1.7-1 4.2-1.8 7.7-2.3 4.6-.7 8-1.5 10.1-2.4v-1.8c0-2.8-.5-4.7-1.5-5.9-1.4-1.6-3.6-2.5-6.5-2.5-2.6 0-4.6.5-5.9 1.6-1.3 1.1-2.3 3.1-2.9 6.2l-5.6-.9c.8-4.4 2.4-7.6 4.8-9.6s5.9-3 10.4-3c3.5 0 6.3.7 8.3 2 2 1.3 3.3 2.9 3.8 4.9.5 1.9.8 4.8.8 8.5v9.2c0 6.4.1 10.5.4 12.2.2 1.7.7 3.3 1.4 4.9h-5.9c-.6-1.3-1-3-1.2-4.9Zm-.5-15.5c-2.1 1-5.2 1.9-9.3 2.6-2.4.4-4 .9-5 1.4-.9.5-1.7 1.3-2.2 2.2-.5 1-.8 2.1-.8 3.3 0 1.9.6 3.5 1.8 4.7 1.2 1.2 2.9 1.7 5 1.7 2 0 3.9-.5 5.5-1.6 1.7-1 2.9-2.5 3.7-4.2.8-1.7 1.2-4.3 1.2-7.7v-2.4h.1ZM654 282.5l5.5 1c.3 2.2 1 3.8 2.3 4.9 1.3 1.1 3.1 1.6 5.3 1.6 2.5 0 4.5-.6 5.9-1.8 1.5-1.2 2.5-3 3-5.3.3-1.4.5-4.5.5-9.1-1.2 1.7-2.6 3.1-4.1 4-1.5.9-3.2 1.3-5.1 1.3-4 0-7.3-1.7-9.9-5.1-3-3.9-4.5-9.1-4.5-15.6 0-4.4.7-8.2 2-11.5 1.3-3.3 3.1-5.7 5.2-7.2 2.2-1.5 4.6-2.3 7.3-2.3 2 0 3.8.5 5.4 1.4 1.6 1 3.1 2.4 4.3 4.3v-4.9h5.2v35.2c0 6.3-.5 10.7-1.5 13.4-1 2.7-2.7 4.8-5 6.3-2.3 1.6-5.1 2.3-8.4 2.3-4.3 0-7.6-1.2-10-3.5-2.4-2.1-3.5-5.3-3.4-9.4Zm4.6-24.5c0 5.4.9 9.3 2.7 11.7 1.8 2.5 3.9 3.7 6.5 3.7s4.7-1.2 6.5-3.6c1.8-2.4 2.7-6.2 2.7-11.5 0-5.1-.9-8.9-2.8-11.4-1.8-2.5-4.1-3.8-6.7-3.8-2.4 0-4.4 1.3-6.2 3.8-1.8 2.4-2.7 6.2-2.7 11.1ZM713.8 266l5.8.9c-1 4.3-2.7 7.6-5.3 9.8-2.6 2.2-5.7 3.3-9.5 3.3-4.7 0-8.6-1.8-11.5-5.4-2.9-3.6-4.4-8.8-4.4-15.6 0-7 1.5-12.4 4.4-16.1 3-3.7 6.7-5.5 11.2-5.5 4.3 0 7.9 1.8 10.8 5.4 2.9 3.6 4.3 8.9 4.3 15.8v1.8h-24.9c.2 4.6 1.3 8 3.2 10.4 1.9 2.3 4.2 3.5 6.9 3.5 4.4 0 7.3-2.8 9-8.3Zm-18.6-11.2h18.7c-.3-3.5-1-6.2-2.3-7.9-1.8-2.5-4.1-3.8-6.9-3.8-2.5 0-4.7 1.1-6.5 3.2-1.9 2.1-2.9 4.9-3 8.5Z" fill-rule="nonzero"/>
    </g>
  </g>
</svg>
